<svg width="58" height="58" viewBox="0 0 58 58" fill="none" xmlns="http://www.w3.org/2000/svg">
<path d="M32.356 0C46.523 0 58 13.05 58 29C58 44.95 46.523 58 32.356 58C23.364 58 15.4991 52.722 10.9134 44.747L14.9611 41.122C18.5733 47.763 25.0035 52.2 32.3816 52.2C37.8172 52.2 43.0301 49.7557 46.8736 45.4049C50.7171 41.054 52.8763 35.153 52.8763 29C52.8763 22.847 50.7171 16.946 46.8736 12.5951C43.0301 8.24428 37.8172 5.8 32.3816 5.8C21.9293 5.8 13.3216 14.674 12.0663 26.1H19.1369L9.55565 36.917L0 26.1H6.89134C8.17226 11.455 19.0857 0 32.356 0ZM39.939 23.896C41.22 23.925 42.2703 25.085 42.2703 26.564V39.933C42.2703 41.383 41.22 42.601 39.9134 42.601H25.7465C24.4399 42.601 23.3896 41.383 23.3896 39.933V26.564C23.3896 25.085 24.4399 23.925 25.7208 23.896V20.967C25.7208 16.53 28.9231 12.934 32.8171 12.934C36.7368 12.934 39.939 16.53 39.939 20.967V23.896ZM32.8171 16.994C30.8958 16.994 29.3074 18.763 29.3074 20.967V23.896H36.3525V20.967C36.3525 18.763 34.7641 16.994 32.8171 16.994Z" fill="#3FD317"/>
</svg>
