<svg width="100" height="100" viewBox="0 0 100 100" fill="none" xmlns="http://www.w3.org/2000/svg">
<path d="M93.3301 54.9983C92.0135 54.9975 90.7258 55.3862 89.63 56.1157L84.797 53.8322C84.9301 52.5586 84.9971 51.279 84.9971 49.9989C84.9971 48.6004 84.9136 47.2035 84.7465 45.8148L89.1297 44.3146V44.3154C90.4736 45.1003 92.1053 45.2152 93.5458 44.6264C94.9857 44.0375 96.0699 42.8118 96.4776 41.3099C96.8862 39.8088 96.5719 38.2027 95.6283 36.9662C94.6847 35.7289 93.2192 35.0011 91.6635 34.9978C89.9574 34.9953 88.368 35.8621 87.4466 37.2986L82.8634 37.9487V37.9479C82.1546 36.025 81.2797 34.1681 80.2468 32.3983C81.5965 30.865 82.8304 29.4482 83.8633 28.2316C84.238 28.2986 84.6167 28.3317 84.9972 28.3317C86.7504 28.33 88.4327 27.6378 89.6797 26.4055C90.926 25.1723 91.6372 23.4985 91.6579 21.745C91.6794 19.9916 91.0087 18.3002 89.7921 17.0375C88.5756 15.7754 86.9101 15.0435 85.1575 14.9996C83.4042 14.9566 81.7046 15.605 80.4269 16.8059C79.1492 18.0068 78.3958 19.6625 78.3305 21.4143C76.9304 22.1644 75.297 23.0808 73.4975 24.0643L73.4966 24.0651C72.1039 22.8005 70.6103 21.6525 69.0307 20.6311L70.0306 18.0309C71.1834 17.6141 72.1436 16.7879 72.7274 15.7094C73.3112 14.6309 73.4783 13.3755 73.1972 12.182C72.916 10.9885 72.2056 9.93987 71.2016 9.23525C70.1976 8.53144 68.9703 8.22045 67.7521 8.36271C66.5339 8.50414 65.4108 9.08886 64.5954 10.0052C63.78 10.9208 63.3301 12.1051 63.3309 13.3308C63.3268 13.8279 63.3996 14.3232 63.5476 14.798L62.0813 17.1477H62.0805C58.45 15.8004 54.6192 15.0734 50.7472 14.9983C50.3138 13.6981 49.9309 12.498 49.5968 11.4817L49.5976 11.4809C50.9341 10.2006 51.6784 8.42254 51.6519 6.57143C51.6255 4.72132 50.8307 2.96471 49.4588 1.72252C48.0859 0.481113 46.2591 -0.134201 44.4149 0.0245922C42.5715 0.183386 40.8761 1.1014 39.7356 2.55872C38.5951 4.01681 38.1121 5.88343 38.4024 7.71125C38.6919 9.53986 39.7289 11.1649 41.2648 12.1979C41.1813 13.331 41.0812 14.6814 40.9811 16.1644C37.1065 17.2023 33.4371 18.8929 30.1316 21.1647L27.4983 17.6977C28.0301 16.8971 28.3195 15.9592 28.3319 14.9982C28.3319 13.6716 27.8051 12.3997 26.8673 11.4626C25.9295 10.5247 24.6574 9.99788 23.3319 9.99788C22.0053 9.99788 20.7341 10.5247 19.7964 11.4626C18.8586 12.3996 18.3318 13.6717 18.3318 14.9982C18.3318 16.3239 18.8586 17.596 19.7964 18.5338C20.7343 19.4708 22.0055 19.9977 23.3319 19.9977C23.8487 19.9952 24.3615 19.905 24.8486 19.7313L27.4984 23.2149C24.1152 26.0393 21.2893 29.4698 19.1655 33.3313L14.4822 32.5481C13.8843 31.0354 12.7546 29.7931 11.3048 29.0563C9.85503 28.3186 8.18539 28.1366 6.61066 28.5443C5.03592 28.9521 3.66486 29.9214 2.75597 31.2703C1.84625 32.6184 1.46086 34.2527 1.67258 35.8654C1.88429 37.4781 2.6774 38.9584 3.90469 40.0262C5.13115 41.0939 6.70567 41.677 8.33249 41.6646C9.45805 41.6679 10.5654 41.3809 11.5486 40.8317C12.7486 41.5488 14.1322 42.3485 15.6481 43.2153H15.6489C15.2155 45.4501 14.9972 47.7219 14.9989 49.9988C14.9989 50.9656 14.9989 51.9324 15.1155 52.8818L11.0161 54.1149H11.0152C10.2163 53.5989 9.28347 53.3268 8.33238 53.3317C6.58491 53.3334 4.96484 54.2464 4.05913 55.7401C3.15356 57.2346 3.09401 59.0938 3.902 60.6428C4.70916 62.1927 6.26727 63.2074 8.01053 63.3215C9.75388 63.4348 11.4301 62.6301 12.4318 61.1986L16.6652 60.7487C17.4244 63.0711 18.4301 65.3065 19.6648 67.4154C17.6816 69.6659 15.8986 71.7154 14.4647 73.3653H14.4655C14.0892 73.3215 13.7096 73.3107 13.3316 73.3323C11.5734 73.3331 9.88705 74.0278 8.63835 75.2667C7.3904 76.5048 6.68164 78.1862 6.66758 79.9446C6.65352 81.7029 7.33415 83.3959 8.56226 84.6546C9.79038 85.9134 11.4659 86.6362 13.2234 86.6651C14.9816 86.6941 16.6803 86.0275 17.9488 84.8101C19.2175 83.5927 19.9544 81.9236 19.9982 80.1653C21.8978 79.0984 24.2647 77.7486 26.8649 76.2484V76.2492C29.0342 78.1696 31.4367 79.8104 34.0145 81.132C33.5646 82.7985 33.1644 84.2822 32.8311 85.4823H32.8319C31.6485 86.0529 30.7379 87.0653 30.2956 88.3025C29.8531 89.5389 29.9151 90.9003 30.4676 92.0913C31.0209 93.2822 32.0199 94.2085 33.2497 94.6692C34.4803 95.1299 35.8416 95.0877 37.0407 94.5526C38.2399 94.0167 39.1809 93.0317 39.659 91.8084C40.1378 90.5853 40.1155 89.2231 39.5986 88.0156L41.5653 83.9655C45.5739 84.9588 49.7254 85.2408 53.8316 84.7992L56.1149 89.6324C55.1052 91.1451 54.757 93.0052 55.1523 94.7807C55.5468 96.5564 56.65 98.0938 58.2065 99.036C59.7621 99.978 61.636 100.243 63.3918 99.7712C65.1484 99.2982 66.6353 98.1279 67.5086 96.5325C68.3811 94.9363 68.5639 93.053 68.0139 91.3188C67.4647 89.5853 66.23 88.1503 64.5974 87.3489C64.4808 85.799 64.3311 84.016 64.1476 82.0154C68.2057 80.2306 71.8876 77.6915 74.9971 74.5322L77.1307 76.4319C76.8471 77.0274 76.6883 77.6733 76.6635 78.3325C76.6552 79.8038 77.2962 81.2048 78.4143 82.1617C79.5332 83.1178 81.016 83.533 82.469 83.2956C83.9213 83.0591 85.1957 82.194 85.9524 80.9311C86.7091 79.669 86.8703 78.1365 86.3948 76.7438C85.9184 75.3511 84.8533 74.2387 83.482 73.7037C82.1117 73.1686 80.5743 73.2637 79.2799 73.9658L77.1463 72.0487H77.1471C79.1104 69.6412 80.7462 66.9847 82.0131 64.1489L87.3465 64.5988C88.0478 66.0296 89.2378 67.1626 90.7026 67.7912C92.1664 68.4197 93.8071 68.5033 95.3281 68.0269C96.849 67.5497 98.1481 66.544 98.991 65.1917C99.8337 63.8395 100.164 62.2301 99.923 60.6544C99.6807 59.0797 98.8834 57.6431 97.6735 56.6052C96.4644 55.5681 94.9239 54.9975 93.3301 54.9983ZM23.333 16.6656C22.659 16.6656 22.0512 16.2595 21.7931 15.6367C21.5351 15.014 21.6774 14.2969 22.1545 13.8205C22.6309 13.3433 23.3479 13.2011 23.9706 13.4591C24.5934 13.7172 24.9995 14.325 24.9995 14.9991C24.9995 15.4407 24.8241 15.865 24.5115 16.1776C24.1989 16.4903 23.7746 16.6656 23.333 16.6656ZM81.6647 76.6662C82.3387 76.6662 82.9465 77.0723 83.2046 77.6951C83.4626 78.3187 83.3195 79.0349 82.8432 79.5121C82.3668 79.9885 81.6498 80.1307 81.027 79.8735C80.4043 79.6155 79.9982 79.0076 79.9982 78.3336C79.9982 77.4131 80.7442 76.6662 81.6647 76.6662ZM93.3312 64.9991V65C92.6076 64.9983 91.9046 64.7626 91.3274 64.3268C90.7501 63.8901 90.33 63.2789 90.1315 62.5833C89.943 61.9052 89.3492 61.418 88.6479 61.3667L81.0981 60.7167C80.3728 60.6654 79.6988 61.0905 79.4317 61.7662C76.1905 69.8052 69.8103 76.1743 61.7652 79.3997C61.0895 79.6668 60.6644 80.3417 60.7157 81.067C60.982 83.9839 61.1986 86.6009 61.3657 88.6171C61.417 89.3185 61.9041 89.9123 62.5822 90.1C63.5201 90.3746 64.2908 91.047 64.6895 91.9394C65.0881 92.8317 65.0749 93.8548 64.6539 94.7365C64.2321 95.6189 63.4448 96.2715 62.4995 96.5221C61.5551 96.7718 60.5477 96.5948 59.7447 96.0374C58.9416 95.48 58.4239 94.5983 58.3288 93.6248C58.2329 92.6522 58.5695 91.6862 59.2485 90.9831C59.7389 90.4844 59.8654 89.7318 59.5652 89.0999C58.682 87.2663 57.5655 84.9002 56.3317 82.2496H56.3325C56.0588 81.6591 55.4666 81.2819 54.8158 81.2836H54.5826C50.0779 81.9345 45.4871 81.6169 41.1156 80.3498C40.3324 80.1232 39.5004 80.4971 39.1489 81.2331C37.9655 83.6828 36.9325 85.7835 36.1989 87.283C35.9467 87.8255 36.0037 88.4615 36.3494 88.9503C36.791 89.5383 36.7952 90.3464 36.3594 90.9385C35.9235 91.5315 35.1511 91.7681 34.4581 91.5216C33.765 91.2751 33.316 90.6036 33.3523 89.8691C33.3887 89.1339 33.9023 88.5103 34.616 88.3333C35.2073 88.1902 35.6729 87.737 35.8325 87.1498C36.2659 85.4833 36.8828 83.2659 37.5991 80.6327V80.6335C37.7818 79.8586 37.3906 79.0621 36.6662 78.733C33.5451 77.298 30.6844 75.3553 28.1993 72.9834C27.6634 72.4739 26.8562 72.3788 26.2161 72.7501C22.7832 74.7499 19.6828 76.5 17.4168 77.7504V77.7496C16.8313 78.0887 16.5088 78.747 16.5997 79.4169C16.6337 79.6096 16.656 79.804 16.6667 80C16.6667 80.8841 16.3152 81.7318 15.69 82.3571C15.0648 82.9824 14.2171 83.3331 13.333 83.3331C12.4489 83.3331 11.6012 82.9824 10.976 82.3571C10.3516 81.7319 10.0001 80.8842 10.0001 80C10.0001 79.1159 10.3516 78.2682 10.976 77.6429C11.6012 77.0176 12.4489 76.6661 13.333 76.6661C13.7325 76.6645 14.1286 76.7381 14.4999 76.8828C15.1524 77.1193 15.8818 76.9266 16.3334 76.3998C17.9998 74.4331 20.3668 71.7493 22.9999 68.7661C23.487 68.2144 23.5548 67.4081 23.1661 66.7828C21.5468 64.1974 20.3122 61.3904 19.5001 58.4496C19.2784 57.6754 18.5349 57.1701 17.7336 57.2495L11.2506 57.9161H11.2498C10.6428 57.9789 10.1185 58.3693 9.8836 58.9325C9.59994 59.6074 8.90855 60.0185 8.17995 59.9448C7.45136 59.8721 6.85673 59.3312 6.71283 58.6133C6.56893 57.8954 6.91131 57.1684 7.55556 56.8202C8.19981 56.472 8.99539 56.5853 9.5164 57.0998C9.95636 57.5298 10.5965 57.6837 11.1837 57.4992L17.4167 55.6326C18.1908 55.396 18.6837 54.6368 18.5828 53.8329C18.4265 52.5609 18.343 51.2806 18.3331 49.9996C18.3331 47.564 18.6126 45.1374 19.1667 42.7654C19.3371 42.0451 19.0112 41.2982 18.3662 40.9327C16.0498 39.5995 13.9665 38.3994 12.3331 37.4327C11.7311 37.0795 10.9727 37.1399 10.4335 37.5824C9.84051 38.0662 9.09869 38.3309 8.3337 38.3325C7.49097 38.316 6.6863 37.9819 6.08 37.3955C5.47462 36.8099 5.11322 36.0168 5.06857 35.1749C5.02474 34.3338 5.30014 33.5067 5.84099 32.8607C6.38186 32.214 7.14767 31.7972 7.98291 31.6921C8.81901 31.5871 9.66422 31.803 10.3473 32.2959C11.0305 32.7888 11.5018 33.5224 11.6664 34.3494C11.8037 35.0301 12.3479 35.5545 13.0335 35.6661L19.9333 36.8165V36.8157C20.6445 36.9216 21.3433 36.5585 21.6667 35.9159C25.8828 27.4079 33.6946 21.2415 42.9482 19.1151C43.6578 18.9497 44.178 18.3418 44.2317 17.6157C44.4153 15.1154 44.565 12.9486 44.6982 11.3988C44.7544 10.6818 44.3442 10.0102 43.6818 9.73148C42.9416 9.4139 42.3412 8.83743 41.993 8.1113C41.644 7.38433 41.5712 6.55644 41.7863 5.77979C42.0013 5.00318 42.49 4.33079 43.1632 3.88668C43.8356 3.44337 44.6469 3.25811 45.4449 3.36647C46.2438 3.47399 46.9765 3.86766 47.5066 4.47472C48.0376 5.08095 48.3303 5.85921 48.3311 6.6648C48.3278 7.8111 47.7365 8.87478 46.7648 9.48179C46.1205 9.89366 45.8394 10.6901 46.0817 11.4154C46.5646 12.8818 47.1981 14.8824 47.9317 17.1659V17.165C48.1492 17.8573 48.7893 18.3295 49.5146 18.332H49.9984C54.155 18.3287 58.2727 19.1442 62.1142 20.7321C62.8652 21.0439 63.731 20.7693 64.1644 20.0821L66.8307 15.8484H66.8315C67.1293 15.3332 67.1293 14.698 66.8315 14.1819C66.7017 13.9181 66.6438 13.6253 66.6645 13.3317C66.6703 12.6792 67.0565 12.0895 67.6528 11.824C68.2499 11.5577 68.9462 11.6652 69.4358 12.0978C69.9246 12.5311 70.1156 13.2093 69.9246 13.8337C69.7335 14.4581 69.1952 14.9139 68.5476 14.999C67.9414 15.0826 67.4295 15.492 67.2145 16.0651L65.4314 20.7322C65.1378 21.4897 65.4331 22.349 66.1311 22.7659C68.2887 24.047 70.286 25.5795 72.0813 27.3319C72.6089 27.8521 73.4178 27.9613 74.0645 27.5991C76.6811 26.1327 79.0646 24.8492 80.8476 23.8492C81.4455 23.5201 81.7821 22.8592 81.6969 22.1819C81.6763 22.0107 81.6647 21.8378 81.6639 21.6658C81.6655 20.7139 82.0732 19.8074 82.7853 19.1763C83.4974 18.5445 84.446 18.2476 85.3905 18.36C86.3357 18.4725 87.1884 18.9836 87.7318 19.7644C88.276 20.5451 88.4604 21.5219 88.2388 22.4473C88.0171 23.3728 87.4101 24.1593 86.5707 24.6084C85.7321 25.0583 84.7405 25.127 83.8474 24.7986C83.1957 24.5629 82.4655 24.7556 82.0139 25.2825L77.0138 31.1322H77.0147C76.5267 31.6839 76.4589 32.4902 76.8476 33.1155C78.2676 35.3602 79.3882 37.7808 80.1813 40.3158C80.4327 41.0908 81.2084 41.5704 82.0139 41.4489L88.8136 40.4821L88.8144 40.4829C89.414 40.3936 89.9184 39.985 90.131 39.416C90.3485 38.8329 90.8736 38.4194 91.4923 38.345C92.11 38.2697 92.7187 38.5459 93.0694 39.0612C93.42 39.5756 93.4539 40.2422 93.1587 40.7905C92.8626 41.3389 92.2862 41.6763 91.6643 41.6656C91.2508 41.6647 90.853 41.5101 90.547 41.2322C90.0979 40.8195 89.4586 40.6855 88.8806 40.8823L82.3811 43.0989V43.0997C81.6186 43.3635 81.1555 44.136 81.2812 44.9325C81.7683 48.1306 81.7683 51.3843 81.2812 54.5833C81.2142 55.283 81.5938 55.9504 82.2306 56.2498L89.0974 59.5828C89.7251 59.8755 90.4677 59.749 90.9639 59.266C91.7587 58.501 92.8801 58.1784 93.9593 58.4042C95.0394 58.63 95.9367 59.3752 96.3576 60.3949C96.7785 61.4147 96.6677 62.5759 96.0623 63.4979C95.4561 64.4193 94.4331 64.9817 93.3308 64.9999L93.3312 64.9991ZM4.99959 10.8315C4.99959 9.82004 4.39091 8.90863 3.45638 8.5216C2.52267 8.13454 1.44674 8.34874 0.732248 9.06331C0.0168852 9.77871 -0.196483 10.8539 0.190553 11.7876C0.576763 12.7221 1.48896 13.3309 2.49951 13.3309C3.88061 13.3309 4.99959 12.2119 4.99959 10.8315ZM85.8302 89.9996C84.8195 89.9996 83.9074 90.6091 83.5203 91.5429C83.1341 92.4774 83.3475 93.5526 84.0629 94.268C84.7774 94.9826 85.8525 95.1967 86.787 94.8097C87.7215 94.4226 88.3302 93.5112 88.3302 92.4998C88.3302 91.1194 87.2113 89.9996 85.8302 89.9996ZM80.8309 8.33187C81.8415 8.33187 82.7529 7.72234 83.1399 6.78859C83.5269 5.85402 83.3135 4.77886 82.5982 4.06348C81.8828 3.34891 80.8077 3.13471 79.874 3.52176C78.9395 3.90882 78.3308 4.82023 78.3308 5.83168C78.3308 7.21202 79.4497 8.33187 80.8309 8.33187ZM19.1648 93.333C18.1533 93.333 17.242 93.9417 16.855 94.8763C16.4679 95.81 16.6821 96.886 17.3967 97.6005C18.112 98.3159 19.1871 98.5293 20.1216 98.1422C21.0553 97.756 21.6648 96.8438 21.6648 95.8332C21.6648 94.452 20.5451 93.333 19.1648 93.333ZM48.3298 34.9978C48.3298 32.7878 47.4523 30.6682 45.8893 29.1059C44.3263 27.5428 42.2074 26.6645 39.9969 26.6645C37.787 26.6645 35.6675 27.5428 34.1044 29.1059C32.5422 30.6682 31.664 32.788 31.664 34.9978C31.664 37.2084 32.5423 39.3282 34.1044 40.8905C35.6675 42.4536 37.7872 43.3319 39.9969 43.3319C42.2074 43.3319 44.3262 42.4536 45.8893 40.8905C47.4524 39.3282 48.3298 37.2084 48.3298 34.9978ZM39.9969 39.9981C38.6712 39.9981 37.3991 39.4712 36.4615 38.5334C35.5236 37.5963 34.9968 36.3242 34.9968 34.9978C34.9968 33.672 35.5236 32.3999 36.4615 31.463C37.3993 30.5251 38.6713 29.9983 39.9969 29.9983C41.3234 29.9983 42.5946 30.5251 43.5323 31.463C44.4701 32.4001 44.9969 33.6722 44.9969 34.9978C44.9969 36.3243 44.4701 37.5963 43.5323 38.5334C42.5945 39.4712 41.3233 39.9981 39.9969 39.9981ZM64.9962 34.9978C63.228 34.9978 61.5327 35.7008 60.2821 36.9504C59.0317 38.2009 58.3295 39.8972 58.3295 41.6647C58.3295 43.4329 59.0317 45.1291 60.2821 46.379C61.5325 47.6294 63.2279 48.3316 64.9962 48.3316C66.7643 48.3316 68.4596 47.6295 69.7102 46.379C70.9598 45.1293 71.6628 43.433 71.6628 41.6647C71.6628 39.8973 70.9598 38.2011 69.7102 36.9504C68.4598 35.7008 66.7644 34.9978 64.9962 34.9978ZM64.9962 44.9983C64.1121 44.9983 63.2644 44.6468 62.6391 44.0216C62.0139 43.3972 61.6624 42.5486 61.6624 41.6645C61.6624 40.7803 62.0139 39.9326 62.6391 39.3073C63.2643 38.6829 64.112 38.3314 64.9962 38.3314C65.8802 38.3314 66.7279 38.6829 67.3532 39.3073C67.9784 39.9326 68.329 40.7803 68.329 41.6645C68.329 42.5486 67.9784 43.3971 67.3532 44.0216C66.728 44.6468 65.8803 44.9983 64.9962 44.9983ZM30.8296 51.6651C29.2831 51.6651 27.7996 52.2796 26.7054 53.3738C25.6113 54.4672 24.9968 55.9518 24.9968 57.4982C24.9968 59.0456 25.6113 60.5293 26.7054 61.6235C27.7996 62.7168 29.2833 63.3322 30.8296 63.3322C32.377 63.3322 33.8605 62.7168 34.9547 61.6235C36.0488 60.5293 36.6633 59.0455 36.6633 57.4982C36.6633 55.9516 36.0488 54.4672 34.9547 53.3738C33.8605 52.2796 32.3768 51.6651 30.8296 51.6651ZM30.8296 59.9984C29.819 59.9984 28.9077 59.3897 28.5207 58.4551C28.1336 57.5206 28.347 56.4454 29.0624 55.7309C29.7769 55.0155 30.8528 54.8021 31.7865 55.1883C32.721 55.5754 33.3297 56.4876 33.3297 57.4982C33.3297 58.8794 32.2108 59.9984 30.8296 59.9984ZM58.3293 53.3316C55.6771 53.3316 53.1331 54.3853 51.2584 56.2611C49.3827 58.136 48.3291 60.68 48.3291 63.3322C48.3291 65.9837 49.3827 68.5277 51.2584 70.4028C53.1332 72.2785 55.6771 73.3322 58.3293 73.3322C60.9814 73.3322 63.5245 72.2785 65.4001 70.4028C67.2749 68.5279 68.3285 65.9839 68.3285 63.3322C68.3285 60.68 67.2749 58.1359 65.4001 56.2611C63.5244 54.3853 60.9814 53.3316 58.3293 53.3316ZM58.3293 69.9984C56.5611 69.9984 54.8658 69.2962 53.6152 68.0457C52.3648 66.7961 51.6626 65.0998 51.6626 63.3323C51.6626 61.5641 52.3648 59.8679 53.6152 58.618C54.8656 57.3676 56.561 56.6654 58.3293 56.6654C60.0975 56.6654 61.7927 57.3675 63.0433 58.618C64.2929 59.8677 64.9959 61.564 64.9959 63.3323C64.9959 65.0997 64.2929 66.7959 63.0433 68.0457C61.7929 69.2962 60.0975 69.9984 58.3293 69.9984ZM54.9956 31.6656C55.4389 31.6681 55.8648 31.4944 56.179 31.1827L57.8455 29.5161V29.5153C58.4996 28.862 58.4996 27.8025 57.8455 27.1491C57.1921 26.4949 56.1327 26.4949 55.4793 27.1491L53.8129 28.8156C53.497 29.1282 53.3192 29.5542 53.3192 29.9991C53.3192 30.4432 53.497 30.8692 53.8129 31.1826C54.1272 31.4944 54.5532 31.6681 54.9956 31.6656ZM25.9123 44.8156L29.2452 46.4821H29.246C29.4767 46.6062 29.7348 46.6691 29.9961 46.6658C30.6238 46.6641 31.1969 46.3093 31.4789 45.7494C31.8908 44.9298 31.5633 43.9315 30.7462 43.5155L27.4134 41.849H27.4126C26.607 41.5132 25.6783 41.8564 25.2846 42.6355C24.8909 43.4146 25.1647 44.3657 25.9123 44.8156ZM77.4119 53.5163L74.0791 51.8498C73.6822 51.6107 73.2033 51.5479 72.7584 51.6761C72.3135 51.8043 71.9413 52.1119 71.7321 52.5255C71.5237 52.939 71.4955 53.4203 71.6568 53.8553C71.8173 54.2895 72.1514 54.6377 72.5789 54.8164L75.9118 56.4829H75.9126C76.1425 56.6061 76.4005 56.669 76.6619 56.6665C77.2896 56.664 77.8635 56.31 78.1455 55.7493C78.5574 54.9297 78.229 53.9323 77.4119 53.5163ZM37.9801 65.4829L36.3137 67.1494C35.9977 67.4629 35.8199 67.8888 35.8199 68.3329C35.8199 68.7779 35.9977 69.2038 36.3137 69.5164C36.6263 69.8324 37.0522 70.0094 37.4963 70.0094C37.9412 70.0094 38.3671 69.8324 38.6797 69.5164L40.3461 67.8499C41.0003 67.1966 41.0003 66.1363 40.3461 65.4829C39.6928 64.8295 38.6335 64.8296 37.9801 65.4829ZM48.3293 51.6662C48.7726 51.6687 49.1985 51.495 49.5128 51.1824C49.8287 50.8697 50.0057 50.4438 50.0057 49.9997C50.0057 49.5547 49.8287 49.1288 49.5128 48.8162L46.18 45.4832V45.4824C45.5266 44.829 44.4664 44.829 43.813 45.4824C43.1597 46.1366 43.1597 47.1961 43.813 47.8495L47.1458 51.1825H47.1466C47.4609 51.4951 47.8869 51.6687 48.3293 51.6662ZM47.8464 73.8168V73.816C47.193 73.1627 46.1336 73.1627 45.4794 73.816C44.8261 74.4702 44.8261 75.5297 45.4794 76.1831L47.1458 77.8496H47.1467C47.4593 78.1655 47.8852 78.3425 48.3293 78.3425C48.7742 78.3425 49.2001 78.1655 49.5127 77.8496C49.8286 77.537 50.0056 77.111 50.0056 76.6661C50.0056 76.222 49.8286 75.796 49.5127 75.4834L47.8464 73.8168Z" fill="#3FD317"/>
</svg>
