<svg width="46" height="46" viewBox="0 0 46 46" fill="none" xmlns="http://www.w3.org/2000/svg">
<path d="M37.6624 26.75C38.0605 27.3232 38.6314 27.7542 39.2918 27.98C39.9522 28.2058 40.6674 28.2147 41.3332 28.0054C41.999 27.796 42.5804 27.3793 42.9927 26.8162C43.4049 26.2531 43.6264 25.5729 43.6249 24.875C43.6264 24.1771 43.4049 23.4969 42.9927 22.9338C42.5804 22.3707 41.999 21.954 41.3332 21.7447C40.6674 21.5353 39.9522 21.5442 39.2918 21.77C38.6314 21.9958 38.0605 22.4268 37.6624 23H36.1249C36.1249 20.0563 35.1874 17.375 33.4999 15.1438L36.0124 12.6313C37.0624 12.8188 38.1311 12.5188 38.9374 11.75C40.1936 10.4563 40.1936 8.37501 38.9374 7.06251C37.6436 5.80626 35.5624 5.80626 34.2499 7.06251C33.4811 7.86876 33.1811 8.93751 33.3686 9.98751L30.8561 12.5C29.1311 11.2063 27.1061 10.3438 24.8749 10.025V7.40001C25.4481 7.00186 25.879 6.43094 26.1049 5.77058C26.3307 5.11021 26.3396 4.39495 26.1302 3.72918C25.9209 3.06341 25.5042 2.48197 24.9411 2.06971C24.3779 1.65744 23.6978 1.43594 22.9999 1.43751C22.302 1.43594 21.6218 1.65744 21.0587 2.06971C20.4955 2.48197 20.0789 3.06341 19.8695 3.72918C19.6601 4.39495 19.669 5.11021 19.8949 5.77058C20.1207 6.43094 20.5517 7.00186 21.1249 7.40001V10.025C19.4374 10.2688 17.8624 10.8125 16.4374 11.6375L14.3561 8.65626C14.7124 7.68126 14.6186 6.55626 13.9811 5.65626C13.734 5.30254 13.4195 5.00104 13.0557 4.76902C12.6918 4.53701 12.2858 4.37903 11.8609 4.30414C11.4359 4.22925 11.0003 4.23892 10.5791 4.33258C10.1579 4.42625 9.75929 4.60208 9.40611 4.85001C7.92486 5.88126 7.54986 7.92501 8.59986 9.40626C9.23736 10.325 10.2499 10.8125 11.2811 10.8125L13.4936 13.9625C12.6874 14.7688 12.0499 15.6688 11.5061 16.6625C10.915 16.4316 10.2699 16.376 9.64805 16.5023C9.02617 16.6287 8.45392 16.9317 7.99986 17.375C6.74361 18.6875 6.74361 20.75 7.99986 22.0625C8.54361 22.5688 9.19986 22.8688 9.87486 23C9.87486 24.0125 10.0061 24.9875 10.2124 25.925L7.75611 26.5813C6.96861 25.925 5.88111 25.6438 4.79361 25.925C3.95321 26.1538 3.23809 26.707 2.80559 27.463C2.37308 28.219 2.25861 29.1159 2.48736 29.9563C2.71611 30.7967 3.26934 31.5118 4.02535 31.9443C4.78135 32.3768 5.67821 32.4913 6.51861 32.2625C7.58736 31.9625 8.39361 31.175 8.73111 30.2L11.5624 29.4313C12.4061 30.9125 13.5311 32.225 14.8436 33.3125L12.7811 37.0625C11.7499 37.2125 10.8124 37.7938 10.2686 38.7875C10.0642 39.1667 9.93656 39.5824 9.89286 40.011C9.84916 40.4395 9.89029 40.8725 10.0139 41.2851C10.1375 41.6977 10.3412 42.082 10.6133 42.4159C10.8854 42.7498 11.2207 43.0269 11.5999 43.2313C11.9791 43.4356 12.3948 43.5633 12.8233 43.607C13.2519 43.6507 13.6848 43.6096 14.0974 43.486C14.5101 43.3623 14.8943 43.1587 15.2283 42.8865C15.5622 42.6144 15.8392 42.2792 16.0436 41.9C16.5686 40.925 16.5499 39.8 16.0811 38.8813L18.0874 35.1875C19.6061 35.7875 21.2561 36.125 22.9999 36.125H23.3374C23.0936 36.6125 22.9999 37.175 22.9999 37.775C23.1499 39.5938 24.7249 40.9438 26.5249 40.8125C28.3249 40.6813 29.6936 39.0875 29.5624 37.2875C29.4874 36.35 29.0186 35.525 28.3436 34.9813C29.2249 34.5875 30.0686 34.0813 30.8561 33.5L35.2436 37.8875C35.0561 38.9375 35.3561 40.0063 36.1249 40.8125C37.4374 42.0688 39.4999 42.0688 40.8124 40.8125C42.1249 39.5563 42.0686 37.4375 40.8124 36.125C40.0061 35.3563 38.9374 35.0563 37.8874 35.2438L33.4999 30.8563C34.4186 29.6375 35.1311 28.25 35.5811 26.75H37.6624ZM20.1874 23C18.6311 23 17.3749 21.7438 17.3749 20.1875C17.3749 18.6313 18.6311 17.375 20.1874 17.375C21.7436 17.375 22.9999 18.6313 22.9999 20.1875C22.9999 21.7438 21.7436 23 20.1874 23ZM26.7499 28.625C25.7186 28.625 24.8749 27.7813 24.8749 26.75C24.8749 25.7188 25.7186 24.875 26.7499 24.875C27.7811 24.875 28.6249 25.7188 28.6249 26.75C28.6249 27.7813 27.7811 28.625 26.7499 28.625Z" fill="#3FD317"/>
<g clip-path="url(#clip0_38_83)">
<path d="M12.0358 14.5405C9.84686 12.3516 9.05518 9.05479 9.05518 9.05479L29.8251 29.8247L28.5714 31.0784C28.5714 31.0761 14.2247 16.7294 12.0358 14.5405Z" fill="#82AEC0"/>
<path d="M14.5409 12.0354C12.352 9.84648 9.05518 9.05479 9.05518 9.05479L29.8251 29.8247L31.0787 28.571L14.5409 12.0354Z" fill="#C9E3E6"/>
<path d="M30.257 30.2553L31.2393 29.2729L34.5877 33.126L34.2311 34.2316L33.1255 34.5882L29.2725 31.2398L30.257 30.2553Z" fill="#874D36"/>
<path d="M30.257 30.2553L31.2416 29.2707L34.59 33.1237C34.59 33.1237 34.9107 33.5498 34.2334 34.2271C33.5561 34.9044 33.13 34.5837 33.13 34.5837L29.2725 31.2398L30.257 30.2553Z" fill="#693928"/>
<path d="M33.2456 33.7427C33.1917 33.7763 32.9876 33.875 32.7365 33.6597C32.5952 33.5386 32.5795 33.4041 32.7387 33.3076C33.0886 33.0946 33.5371 32.5361 33.73 32.1481L34.1987 32.6886C33.9543 33.1013 33.647 33.4982 33.2456 33.7427ZM32.27 32.5698C32.2161 32.6034 31.9672 32.7335 31.7788 32.6213C31.5119 32.4621 31.559 32.2603 31.7183 32.1638C32.0681 31.9508 32.5683 31.4282 32.788 31.0604L33.2478 31.5897C32.9652 31.9934 32.6602 32.332 32.27 32.5698ZM31.0589 31.7153C31.0051 31.7489 30.792 31.805 30.5767 31.6547C30.4377 31.556 30.3906 31.334 30.5498 31.2376C30.9512 30.9954 31.5388 30.3786 31.8102 29.9413L32.2677 30.4683C31.9313 30.9572 31.4357 31.4843 31.0589 31.7153Z" fill="#A65F3E"/>
<path d="M33.0363 35.2835L33.126 34.5882C33.126 34.5882 33.4736 34.5905 34.0321 34.032C34.5905 33.4736 34.5883 33.126 34.5883 33.126L35.2835 33.0363C35.7948 32.9466 36.2344 33.4041 36.1627 33.9132C36.0931 34.3909 35.8262 34.9314 35.3799 35.3799C34.9336 35.8262 34.3931 36.0931 33.9132 36.1626C33.4063 36.2344 32.9713 35.7926 33.0363 35.2835ZM25.8349 33.431L28.1898 30.5513L29.3717 29.3694L30.5536 28.1875L33.4333 25.8326C33.5723 25.716 33.7764 25.725 33.9065 25.8528C34.0366 25.9829 34.0433 26.1937 33.9199 26.3328C33.2965 27.028 32.0405 28.4835 31.4776 29.0823C31.0829 29.504 30.6702 29.9234 30.2979 30.2934C29.9279 30.6635 29.5062 31.0761 29.0869 31.4731C28.488 32.036 27.0325 33.2919 26.3373 33.9154C26.1982 34.0388 25.9896 34.032 25.8573 33.902C25.725 33.7741 25.7183 33.57 25.8349 33.431Z" fill="#9E740B"/>
<path d="M33.1882 14.5405C35.3771 12.3516 36.1688 9.05479 36.1688 9.05479L15.3989 29.8247L16.6526 31.0784C16.6526 31.0761 30.9993 16.7294 33.1882 14.5405Z" fill="#82AEC0"/>
<path d="M30.6839 12.0354C32.8728 9.84648 36.1696 9.05479 36.1696 9.05479L15.3997 29.8247L14.146 28.571L30.6839 12.0354Z" fill="#C9E3E6"/>
<path d="M14.9664 30.2553L13.9841 29.2729L10.6357 33.126L10.9923 34.2316L12.098 34.5882L15.951 31.2398L14.9664 30.2553Z" fill="#874D36"/>
<path d="M14.9669 30.2553L13.9824 29.2707L10.6362 33.126C10.6362 33.126 10.2908 33.5274 10.9928 34.2294C11.6948 34.9313 12.0962 34.586 12.0962 34.586L15.9492 31.2376L14.9669 30.2553Z" fill="#693928"/>
<path d="M12.1878 35.2835L12.098 34.5882C12.098 34.5882 11.7504 34.5905 11.192 34.032C10.6335 33.4736 10.6358 33.126 10.6358 33.126L9.94054 33.0363C9.43144 32.9712 8.98962 33.4041 9.06139 33.9132C9.13092 34.3909 9.3978 34.9314 9.8441 35.3799C10.2904 35.8262 10.8309 36.0931 11.3108 36.1626C11.8177 36.2344 12.2528 35.7926 12.1878 35.2835ZM19.3891 33.431L17.0343 30.5513L15.8524 29.3694L14.6705 28.1875L11.7908 25.8326C11.6517 25.716 11.4477 25.725 11.3176 25.8528C11.1875 25.9829 11.1808 26.1937 11.3041 26.3328C11.9276 27.028 13.1835 28.4835 13.7464 29.0823C14.1412 29.504 14.5538 29.9234 14.9261 30.2934C15.2962 30.6635 15.7178 31.0761 16.1372 31.4731C16.736 32.036 18.1915 33.2919 18.8868 33.9154C19.0258 34.0388 19.2344 34.032 19.3667 33.902C19.499 33.7741 19.5058 33.57 19.3891 33.431Z" fill="#9E740B"/>
<path d="M9.4024 33.7943C9.50258 34.182 9.72808 34.5258 10.0438 34.7721C10.4924 35.1265 10.7525 34.8573 10.5507 34.4492C10.387 34.1217 10.2636 33.958 10.0191 33.5229C9.78815 33.1125 9.29251 33.3547 9.4024 33.7943ZM12.1767 26.8015C11.9838 26.575 12.2865 26.4965 12.7396 26.8822C13.1926 27.268 15.0989 28.8962 15.0989 28.8962C15.7112 29.4524 15.4017 30.0265 15.4017 30.0265C14.9061 29.634 12.3695 27.028 12.1767 26.8015Z" fill="#E2A610"/>
<path d="M11.9702 33.7427C12.0241 33.7763 12.2282 33.875 12.4793 33.6597C12.6206 33.5386 12.6363 33.4041 12.4771 33.3076C12.1272 33.0946 11.6787 32.5361 11.4858 32.1481L11.0171 32.6886C11.2638 33.1013 11.5688 33.4982 11.9702 33.7427ZM12.9481 32.5698C13.0019 32.6034 13.2508 32.7335 13.4392 32.6213C13.7061 32.4621 13.659 32.2603 13.4998 32.1638C13.1499 31.9508 12.6498 31.4282 12.43 31.0604L11.9702 31.5897C12.2506 31.9934 12.5578 32.332 12.9481 32.5698ZM14.1569 31.7153C14.2107 31.7489 14.4238 31.805 14.6391 31.6547C14.7781 31.556 14.8252 31.334 14.666 31.2376C14.2646 30.9954 13.677 30.3786 13.4056 29.9413L12.9481 30.4683C13.2845 30.9572 13.7801 31.4843 14.1569 31.7153Z" fill="#A65F3E"/>
<path d="M22.6123 25.1172L23.8615 26.3686L25.9607 23.4553L25.1174 22.6121L22.6123 25.1172Z" fill="#2F7889"/>
<path d="M31.1928 27.9565C30.7712 28.3063 31.5225 28.4207 32.0473 27.8914L33.1014 26.8441C33.3638 26.5772 33.3638 26.1197 32.8771 26.5009L31.1928 27.9565ZM34.8911 34.0365C34.7408 34.2697 34.8058 34.5007 35.0503 34.503C35.2252 34.5052 35.4136 34.3751 35.5011 34.2877C35.6289 34.1598 35.7209 34.0567 35.7837 33.7943C35.8667 33.4422 35.4854 33.0878 35.2611 33.4265C35.0615 33.727 35.0413 33.8055 34.8911 34.0365Z" fill="#E2A610"/>
</g>
<defs>
<clipPath id="clip0_38_83">
<rect width="28.7069" height="28.7069" fill="white" transform="translate(8.25879 8.25862)"/>
</clipPath>
</defs>
</svg>
